<svg xmlns="http://www.w3.org/2000/svg" width="1269.9588" height="466.135" viewBox="0 0 1269.9588 466.135"><defs><style>.a{isolation:isolate;}.ai,.aj,.ak,.am,.ao,.at,.b,.e,.g,.h,.i,.j,.s,.y{fill:none;}.b,.e,.j{stroke:#2a63ed;}.ah,.ai,.aj,.ak,.am,.ao,.ar,.at,.b,.e,.g,.h,.i,.j,.s{stroke-miterlimit:10;}.b{stroke-width:2px;}.c{fill:#00cba5;}.ae,.d,.f{fill:#001352;}.d,.e,.f{fill-rule:evenodd;}.d{opacity:0.05;}.e,.g,.h,.i,.j{stroke-width:1.5px;}.g{stroke:#ffc645;}.h{stroke:#00cba5;}.i,.y{stroke:#ef6c90;}.k{fill:#2a63ed;}.aq,.l{fill:#ffc645;}.m{fill:#ef6c90;}.n{fill:#bac8cf;}.o{fill:#dae4ff;}.ar,.p,.v{fill:#fff;}.q{fill:#3a86ff;}.r{fill:#e2986d;}.s{stroke:#d2784c;stroke-width:0.9949px;}.t{fill:#d2784c;}.u{fill:#3163da;}.v{opacity:0.9;}.w{fill:#84a7ff;}.aa,.x{fill:#c6d5ff;}.y{stroke-linecap:round;stroke-linejoin:round;stroke-width:1.2px;opacity:0.7;}.aa,.y{mix-blend-mode:multiply;}.z{fill:#dae5ff;}.aa{opacity:0.5;}.ab,.ac{fill:#3163d5;}.ab{opacity:0.3;}.ad{fill:#eaeaec;}.af{fill:#fdfdfd;}.ag,.al{fill:#ff401e;}.ag{opacity:0.2;}.ah{stroke:#808081;}.ai,.ar,.at{stroke:#a4a6a8;}.aj{stroke:#f0eff4;}.aj,.ak,.ar,.at{stroke-width:0.5px;}.ak,.ao{stroke:#e8e8e9;}.am{stroke:#fff;}.an{fill:#f7f6f9;}.ap{fill:#3e7be0;}.aq{opacity:0.15;}.as{fill:#f0f0ef;}.au{fill:#4e77f7;}.av{fill:#3a63e3;}.aw{fill:#628bff;}</style></defs><g class="a"><path class="b" d="M304.2132,150.8521V42.2a14.2555,14.2555,0,0,1,14.2554-14.2555H425.0853A14.2555,14.2555,0,0,1,439.3408,42.2V196.6673a14.2555,14.2555,0,0,0,14.2555,14.2555h40.4272a14.2555,14.2555,0,0,0,14.2555-14.2555V172.1a14.2555,14.2555,0,0,1,14.2555-14.2555H589.452A14.2555,14.2555,0,0,1,603.7075,172.1V279.9553a14.2555,14.2555,0,0,0,14.2555,14.2555H753.5035"/><circle class="c" cx="358.8721" cy="27.9443" r="5.2403"/><circle class="c" cx="557.1042" cy="158.0844" r="5.2403"/><circle class="c" cx="603.7396" cy="238.9752" r="5.2403"/><circle class="c" cx="664.6555" cy="294.2108" r="5.2403"/><circle class="c" cx="439.5961" cy="78.2098" r="5.2403"/><circle class="c" cx="304.8725" cy="97.536" r="5.2403"/><circle class="c" cx="439.5961" cy="165.8373" r="5.2403"/><path class="d" d="M1221.2157,31.8009a17.56,17.56,0,1,1-17.43,17.43A17.6713,17.6713,0,0,1,1221.2157,31.8009Zm9.8492-21.1842a42.5285,42.5285,0,0,1,10.4478,4.6447l6.6765-6.0955a1.408,1.408,0,0,1,1.7433.2887L1261.25,20.4837a1.4019,1.4019,0,0,1,0,2.0318L1255.4473,28.9A34.8236,34.8236,0,0,1,1259.8,39.6362l8.7084.2886a1.3715,1.3715,0,0,1,1.4508,1.4508V57.0491A1.3715,1.3715,0,0,1,1268.508,58.5l-8.7084.5811a33.2205,33.2205,0,0,1-4.3523,10.4477l5.8031,6.6766c.5811.2887.5811,1.1622,0,1.7433l-11.0292,11.3179a1.4021,1.4021,0,0,1-2.0318,0l-6.3841-5.8032a37.9622,37.9622,0,0,1-10.7365,4.3524l-.2886,8.7084a1.5545,1.5545,0,0,1-1.4508,1.4508h-15.9623a1.3286,1.3286,0,0,1-1.1622-1.4508l-.581-8.7084a37.9552,37.9552,0,0,1-10.7365-4.3524l-6.3842,5.8032a1.4021,1.4021,0,0,1-2.0318,0l-11.0291-11.0292a1.4019,1.4019,0,0,1,0-2.0318l5.8031-6.3841a37.959,37.959,0,0,1-4.3523-10.7365l-8.7084-.2886a1.5545,1.5545,0,0,1-1.4508-1.4508V41.3832a1.3286,1.3286,0,0,1,1.4508-1.1622l8.4159-.581a50.1407,50.1407,0,0,1,4.6447-10.7365l-6.0955-6.3842a1.7956,1.7956,0,0,1,.2887-2.0318l11.0291-11.0291a1.4019,1.4019,0,0,1,2.0318,0l6.3842,5.8031a34.8187,34.8187,0,0,1,10.7365-4.3523l.2886-8.7084A1.3715,1.3715,0,0,1,1213.36.75h15.6735a1.3714,1.3714,0,0,1,1.4508,1.4508Z"/><path class="e" d="M667.4126,141.4057a12.7862,12.7862,0,1,1,0,17.9488A12.8674,12.8674,0,0,1,667.4126,141.4057Zm-5.8361-15.9785a30.9677,30.9677,0,0,1,7.7708-2.9879l.2992-6.5761a1.0252,1.0252,0,0,1,1.0462-.7489l11.506-.1487a1.0209,1.0209,0,0,1,1.0462,1.0462l.2991,6.275a25.3555,25.3555,0,0,1,7.769,3.287l4.6324-4.3351a.9986.9986,0,0,1,1.4939,0l8.07,8.07a.9986.9986,0,0,1,0,1.4939l-4.1846,4.783a24.1862,24.1862,0,0,1,3.1384,7.62l6.4256.45c.4478-.15.8975.2992.8976.8976l.1486,11.506a1.0209,1.0209,0,0,1-1.0461,1.0462l-6.275.2991a27.6391,27.6391,0,0,1-3.2871,7.769l4.3352,4.6324a1.1318,1.1318,0,0,1,0,1.4939l-8.2187,8.2187a.9673.9673,0,0,1-1.3453-.1486l-4.783-4.1846a27.6372,27.6372,0,0,1-7.7689,3.2871l-.2992,6.275a1.0209,1.0209,0,0,1-1.0461,1.0461H670.8433a1.0208,1.0208,0,0,1-1.0461-1.0461l-.2992-6.275a27.6432,27.6432,0,0,1-7.769-3.2871l-4.6324,4.3352a1.1318,1.1318,0,0,1-1.4939,0l-8.2187-8.2187a.9673.9673,0,0,1,.1486-1.3453l4.034-4.6324a36.5159,36.5159,0,0,1-3.1365-7.9195l-6.4255-.1486a1.3075,1.3075,0,0,1-.8975-1.1948V144.7038a1.0206,1.0206,0,0,1,1.0461-1.0461l6.275-.2992a25.3527,25.3527,0,0,1,3.2871-7.7689l-4.3352-4.6324a.9987.9987,0,0,1,0-1.494l8.07-8.07a.9987.9987,0,0,1,1.494,0Z"/><path class="f" d="M696.7774,209.0973a11.16,11.16,0,1,1,0,15.6658A11.2307,11.2307,0,0,1,696.7774,209.0973Zm-5.0938-13.9461a27.0257,27.0257,0,0,1,6.7824-2.6078l.2611-5.74a.8948.8948,0,0,1,.9131-.6536l10.0426-.13a.8909.8909,0,0,1,.913.9131l.2611,5.4768a22.1294,22.1294,0,0,1,6.7808,2.869l4.0432-3.7838a.8716.8716,0,0,1,1.3039,0l7.0436,7.0435a.8717.8717,0,0,1,0,1.304l-3.6524,4.1746a21.1122,21.1122,0,0,1,2.7392,6.651l5.6083.3925c.3908-.1314.7834.2611.7834.7834l.13,10.0425a.891.891,0,0,1-.913.9131l-5.4769.2611a24.124,24.124,0,0,1-2.8689,6.7808l3.7837,4.0431a.9878.9878,0,0,1,0,1.304l-7.1733,7.1733a.8443.8443,0,0,1-1.1742-.13l-4.1746-3.6524a24.1247,24.1247,0,0,1-6.7808,2.869l-.2611,5.4768a.891.891,0,0,1-.913.9131h-9.9128a.891.891,0,0,1-.9131-.9131l-.2611-5.4768a24.1253,24.1253,0,0,1-6.7807-2.869l-4.0432,3.7838a.9879.9879,0,0,1-1.3039,0l-7.1733-7.1733a.8442.8442,0,0,1,.13-1.1742l3.5209-4.0432a31.8681,31.8681,0,0,1-2.7376-6.9122l-5.6082-.13a1.1411,1.1411,0,0,1-.7834-1.0428v-9.9127a.8911.8911,0,0,1,.9131-.9131l5.4768-.2611a22.1315,22.1315,0,0,1,2.869-6.7808l-3.7838-4.0431a.8717.8717,0,0,1,0-1.304l7.0435-7.0435a.8716.8716,0,0,1,1.3039,0Z"/><rect class="g" x="42.2509" y="82.9839" width="6.7036" height="40.0889"/><rect class="c" x="53.9765" y="88.6983" width="6.7036" height="34.3745"/><rect class="h" x="128.5684" y="88.6983" width="6.7036" height="34.3745"/><rect class="i" x="74.2297" y="88.6983" width="8.2431" height="34.3745"/><polygon class="j" points="103.668 88.698 95.425 88.698 103.668 123.073 111.911 123.073 103.668 88.698"/><polygon class="k" points="144.707 82.984 136.464 82.984 144.707 123.073 152.95 123.073 144.707 82.984"/><rect class="l" x="85.4132" y="81.2366" width="11.4438" height="41.8362"/><rect class="k" x="64.6361" y="81.2366" width="4.5497" height="41.8362"/><rect class="m" x="120.0659" y="81.2366" width="4.5497" height="41.8362"/><rect class="j" x="174.2784" y="90.2619" width="45.3032" height="32.811"/><rect class="n" x="29.7016" y="120.0728" width="211.1407" height="8.4456"/><rect class="g" x="221.5894" y="2.4973" width="6.7036" height="40.0889" transform="translate(449.8824 45.0836) rotate(180)"/><rect class="k" x="209.8639" y="8.2117" width="6.7036" height="34.3745" transform="translate(426.4313 50.798) rotate(180)"/><rect class="k" x="135.272" y="8.2117" width="6.7036" height="34.3745" transform="translate(277.2475 50.798) rotate(180)"/><rect class="c" x="188.0712" y="8.2117" width="8.2431" height="34.3745" transform="translate(384.3854 50.798) rotate(180)"/><polygon class="i" points="166.876 8.212 175.119 8.212 166.876 42.586 158.633 42.586 166.876 8.212"/><polygon class="h" points="125.837 2.497 134.08 2.497 125.837 42.586 117.594 42.586 125.837 2.497"/><rect class="k" x="173.687" y="0.75" width="11.4438" height="41.8362" transform="translate(358.8177 43.3362) rotate(180)"/><rect class="i" x="201.3582" y="0.75" width="4.5497" height="41.8362" transform="translate(407.2661 43.3362) rotate(180)"/><rect class="l" x="145.9284" y="0.75" width="4.5497" height="41.8362" transform="translate(296.4064 43.3362) rotate(180)"/><rect class="n" x="29.7016" y="40.5862" width="211.1407" height="8.4456" transform="translate(270.5439 89.6181) rotate(180)"/><path class="o" d="M102.0427,39.6808h0c-1.511-4.006,0-12.4313,0-12.4313H51.7762a6.2157,6.2157,0,0,0-6.2157,6.2156v0a6.2157,6.2157,0,0,0,6.2157,6.2156Z"/><path class="p" d="M51.7762,27.25H71.11a0,0,0,0,1,0,0V39.6808a0,0,0,0,1,0,0H51.7762a6.2156,6.2156,0,0,1-6.2156-6.2156v0A6.2156,6.2156,0,0,1,51.7762,27.25Z"/><path class="k" d="M102.94,40.5862H51.7762a7.1211,7.1211,0,0,1,0-14.2421H102.94v1.81H51.7762a5.3106,5.3106,0,0,0,0,10.6212H102.94Z"/><path class="p" d="M92.2238,25.44h0c-.7971-2.1134,0-6.5583,0-6.5583H65.7051A3.2792,3.2792,0,0,0,62.4259,22.16h0A3.2792,3.2792,0,0,0,65.7051,25.44Z"/><path class="m" d="M75.3454,19.1638H93.1193V17.9767H55.9272a4.2825,4.2825,0,0,0-4.2949,3.6324,4.1889,4.1889,0,0,0,4.1482,4.735H93.1193V25.1569H75.3454a3.0733,3.0733,0,0,1-3.1163-2.959l0-.0375,0-.0376A3.0733,3.0733,0,0,1,75.3454,19.1638Z"/><path class="p" d="M65.1115,17.426h0a10.4107,10.4107,0,0,0,0-3.9924h27.39A1.9962,1.9962,0,0,1,94.4978,15.43h0a1.9962,1.9962,0,0,1-1.9962,1.9962Z"/><path class="l" d="M85.4458,13.6056h-20.88v-.7227H98.454a2.6072,2.6072,0,0,1,2.6145,2.2113,2.55,2.55,0,0,1-2.5252,2.8825H64.5663V17.254h20.88a1.8709,1.8709,0,0,0,1.8971-1.8013l0-.0229,0-.0229A1.8709,1.8709,0,0,0,85.4458,13.6056Z"/><path class="q" d="M196.2144,139.6447h-6.0105a.9949.9949,0,0,1,0-1.99h6.0105a1.1594,1.1594,0,0,0,.942-1.8354L188.59,123.88a.995.995,0,0,1,1.6168-1.16l8.5663,11.9393a3.1494,3.1494,0,0,1-2.5588,4.9854Z"/><path class="r" d="M106.4761,294.0336a76.0619,76.0619,0,0,0-.8491,12.4072c.2875,4.8889.475,7.4833,2.9975,8.4358,0,0-.519,5.7517,3.85,7.3814,0,0,1.5544,4.0262,3.297,4.5055s-.2088-6.3269,0-11.5993.9887-10.6848,3.1806-8.207,2.1089,4.541,2.5882,6.9971,1.8266.2314,2.573-3.5438-.9433-13.6378-1.9978-16.3769a41.6613,41.6613,0,0,0-2.3007-4.9439Z"/><path class="s" d="M108.6245,314.8766a65.6448,65.6448,0,0,1-1.1169-9.9645"/><path class="s" d="M112.4742,322.258c-1.6813-6.7083-1.5425-12.9864-1.6813-15.9558"/><path d="M189.7015,125.6317a24.7077,24.7077,0,0,0,6.755-11.936,5.0852,5.0852,0,0,0-.266-3.9637c-.7531-1.1365-2.7821-1.3827-3.3607-.1482a14.4852,14.4852,0,0,0-17.7833-12.8984c-1.448.3277-6.3675,1.311-6.503,3.2559.23-3.3066.1832-6.9142-1.836-9.5426-2.3033-2.9983-6.6564-3.8109-10.3137-2.8522a12.3426,12.3426,0,0,0-9.5265,12.6211A11.6137,11.6137,0,0,0,155.8,110.7882c-5.7438,4.1719-7.2264,12.9315-3.7018,19.0936s11.2875,9.3421,18.2727,8.0762Z"/><path class="r" d="M182.5351,142.988a17.701,17.701,0,0,1-2.4455-.9859"/><path class="r" d="M186.3593,150.6552l7.0739,20.44-9.8448,28.0794-9.0452,2.31-18.89-49.368c4.7771-1.1852,7.3685-2.9068,8.2332-8.4552s1.1472-12.6235,1.1472-12.6235l-.5706-5.4784s13.45-4.22,16.4469-11.1c0,0,4.366,2.2849,7.642,1.5911s3.61.7234,3.2665,4.1364a28.0348,28.0348,0,0,0,.107,8.8317c.5893,3.3851-.2037,9.3823-2.527,12.983-1.428,2.2131-4.6173,1.7056-6.8633.9859C182.5351,142.988,181.6668,148.4329,186.3593,150.6552Z"/><path class="m" d="M192.7091,219.0081c-1.5889,4.21-1.45,8.9791-1.7731,13.3043-.7125,9.5383,6.816,23.6928,6.3519,33.6172,0,0-25.8861,17.0058-69.61-1.55,0,0,14.637-35.1254,16.2221-39.7464s-5.8957-20.6745-5.8957-20.6745l-7.1441,30.2757,8.5275,57.5415-32.9121,2.2581s1.1825-49.8746,1.82-58.94,2.39-14.9431,5.3239-28.6335,7.6135-30.5116,12.29-40.4331c5.4881-11.6442,17.7205-11.25,29.7435-13.91l30.0239,40.5721.6822-42.0338c11.0962,5.1714,20.9769,11.6158,24.147,23.3242s-3.8808,51.4579-3.8808,51.4579L224,259.1455l-35.4168,5.2337-3.6482-44.2135,6.3561-12.5423"/><path class="t" d="M185.6187,150.2486l.0018-.0029c-3.8529-2.414-3.0854-7.2576-3.0854-7.2576-3.1633-.9226-6.9017-2.0219-8.5143-3.0485C174.0208,139.94,173.4667,146.9232,185.6187,150.2486Z"/><path class="q" d="M164.78,120.8146a.9944.9944,0,0,1-.9809-.8375c-.68-4.2441,1.2865-8.593,5.395-11.9345a23.6864,23.6864,0,0,1,11.6692-4.655c5.0141-.6073,9.3742.4528,12.2813,2.9819a.9952.9952,0,0,1-1.3058,1.5021c-3.7971-3.3035-14.0172-4.2771-21.3894,1.7159-3.542,2.88-5.25,6.5517-4.6856,10.0748a.9947.9947,0,0,1-.8249,1.14A.9758.9758,0,0,1,164.78,120.8146Z"/><path class="u" d="M167.2534,121.4515v10.7964a2.754,2.754,0,0,1-3.0543,2.748c-3.042-.3527-7.3225-1.87-7.7647-7.5631-.4424-5.696,4.0876-7.8547,7.4227-8.6711A2.7561,2.7561,0,0,1,167.2534,121.4515Z"/><path d="M182.1737,124.7481a3.3846,3.3846,0,0,1,.0195.4223q-.0018.0948-.0089.1894c-.0025.0339-.0057.0678-.0093.1016a.159.159,0,0,0-.0049.0434q.0108-.0771.0047-.0348l-.0038.0248a.7869.7869,0,0,1-.0178.0858l-.011.0351c-.0135.0495.0349-.0727.01-.0291-.0218.0375.03-.0383.0288-.0366.0061-.0061.0824-.0483.03-.0253a.3692.3692,0,0,1,.1781-.0339.28.28,0,0,1,.1949.1251c-.0084-.0188-.0216-.0372-.0312-.0557-.0279-.0534.0109.022.0119.0289a.2173.2173,0,0,0-.013-.035,1.3586,1.3586,0,0,1-.0512-.1815c-.0033-.0159-.0185-.1159-.01-.0476s-.0025-.0355-.0034-.0489a1.4815,1.4815,0,0,1-.0013-.1788c.0016-.03.0049-.0593.0075-.0889.0046-.0535-.0146.0817-.0035.0294l.0068-.0375a1.3077,1.3077,0,0,1,.049-.1823c.0038-.0107.0088-.0215.0119-.0324-.026.092-.0273.0586-.0116.0337.0057-.0089.0123-.0187.0171-.028.0182-.0355-.0309.04-.03.0389a.248.248,0,0,1-.2559.0486l-.075-.0206q-.0786-.0679-.045-.0355c.0266.03-.0434-.0748-.0266-.0347.0348.0827-.0186-.074,0-.0082.0068.0243.0148.0481.02.0727.0072.0312.0131.0627.0186.0942l.0069.0422c.01.05-.0084-.0821-.0006-.0058a2.641,2.641,0,0,1,.0129.4007c-.0017.0333-.0041.0667-.0071.1l-.0043.0427c-.007.0747,0-.0145.0037-.0237a.7217.7217,0,0,0-.0184.0912l-.0107.0378c-.018.0677.0308-.0474.0049-.0116a.1411.1411,0,0,0-.0184.0308c.0017-.0087.0627-.071.0171-.0282-.0032.003.0709-.0517.036-.03s.05-.0215.0464-.02a.2491.2491,0,0,1,.1314-.0014c-.008-.0022.09.04.053.0209-.0408-.0209.069.0595.0364.0256-.0289-.03.0436.0717.0247.0319a.7009.7009,0,0,0-.0354-.0661c.004.0064.0329.0926.016.0326l-.01-.0314c-.0082-.0283-.0152-.057-.0214-.0858l-.0075-.0382c-.0056-.0305,0-.0836,0,.0149,0-.0562-.01-.1128-.01-.1694q0-.0457.0024-.0915l.0039-.0521c.0043-.0623.0039.0216-.0048.0273.0107-.007.0125-.0731.016-.09.0062-.0295.0132-.0589.0214-.0879s.017-.0574.0269-.0857l.0132-.036c.025-.0688-.03.0584-.0065.0172.0116-.02.0213-.0418.0335-.0619.0088-.0144.0409-.0536.0013-.0076s-.0112.0129-.0029.0048a.225.225,0,0,0,.03-.0308c-.001.0023-.0706.0447-.0386.03a.1629.1629,0,0,0,.0263-.0151q-.0923.0346-.0476.0232c.02-.0046.0128-.0035-.0231.0031a.2624.2624,0,0,1-.099-.0043c.0611.0121-.0411-.0128-.039-.02l.0261.0155c.0409.0218-.06-.0594-.0313-.022.0525.0672-.0312-.0613,0-.0019a.2729.2729,0,0,0,.0168.03c.0227.0328-.0271-.0914-.0088-.02a.7835.7835,0,0,0,.0236.1c-.0006-.0013-.0065-.0836-.0064-.0406,0,.0215.0029.0435.0034.0651a1.83,1.83,0,0,1-.008.1972q-.0045.0526-.01.1052c-.0017.0154-.009.0747-.0011.0136s-.0007.0008-.0028.0132a1.4628,1.4628,0,0,1-.0525.2018c-.0158.0493.0353-.0663.01-.025-.008.0129-.0143.0271-.0223.04s-.04.0548-.0014.0067.0042-.0071-.0051.0027c-.0123.0128-.0506.04,0,.0055.0525-.0366.0088-.0074-.003,0-.0145.0086-.0587.0287.0013.002.0738-.0327-.0426-.0008.042-.0116.0651-.0084.028-.0034.0128-.0038q.1043.0189.0575.0067c-.0193-.0057-.0128-.0025.02.01.0573.0241.0245.01.0117.0022.0842.0531.0509.0365.0251.0155-.0295-.0241.03.0393.03.0383-.037-.0582.0141.064.0083.0267a.1593.1593,0,0,0-.0082-.0312q.01.0981.01.05a.1973.1973,0,0,1,.0028-.0334.3936.3936,0,0,0-.1156-.2791.3947.3947,0,0,0-.5582,0,.4555.4555,0,0,0-.1156.2791.6728.6728,0,0,0,.341.6253.6591.6591,0,0,0,.7658-.1138,1.019,1.019,0,0,0,.2966-.5527,2.5228,2.5228,0,0,0,.0592-.617.9882.9882,0,0,0-.2511-.6572.6276.6276,0,0,0-.75-.1266.9618.9618,0,0,0-.4064.5351,1.7637,1.7637,0,0,0-.1069.586c-.009.4211.1324,1.0591.6559,1.0836a.6571.6571,0,0,0,.6224-.4847,1.8509,1.8509,0,0,0,.0764-.6258c-.0036-.4095-.0735-1.1286-.6289-1.13-.53-.0018-.6677.6918-.6578,1.1024a1.86,1.86,0,0,0,.1578.704.605.605,0,0,0,.2485.2934.5211.5211,0,0,0,.5342-.0195.939.939,0,0,0,.3337-.7723,3.3466,3.3466,0,0,0-.0057-.67.4281.4281,0,0,0-.1156-.2791.3948.3948,0,0,0-.6739.2791Z"/><path d="M190.7166,124.8513a3.4038,3.4038,0,0,1,.0194.4223q-.0016.0948-.0088.1894c-.0026.0339-.0058.0678-.0094.1016a.163.163,0,0,0-.0049.0434q.0108-.0771.0048-.0348l-.0038.0248a.8043.8043,0,0,1-.0178.0857l-.0111.0352c-.0135.0495.0349-.0728.01-.0291-.0217.0375.03-.0384.0288-.0366.0061-.0061.0824-.0483.03-.0253a.3685.3685,0,0,1,.178-.0339.28.28,0,0,1,.195.1251c-.0084-.0188-.0216-.0372-.0313-.0557-.0278-.0534.0109.022.012.0289a.2177.2177,0,0,0-.0131-.035,1.3582,1.3582,0,0,1-.0511-.1815c-.0033-.0159-.0186-.1159-.01-.0476s-.0026-.0355-.0035-.049a1.5005,1.5005,0,0,1-.0013-.1787c.0016-.03.0049-.0593.0075-.0889.0047-.0535-.0146.0817-.0034.0293l.0067-.0374a1.3321,1.3321,0,0,1,.049-.1823c.0038-.0107.0088-.0215.0119-.0324-.0259.092-.0273.0586-.0115.0337.0056-.0089.0122-.0187.017-.028.0182-.0355-.0308.04-.0295.0389a.2482.2482,0,0,1-.256.0486l-.075-.0206q-.0786-.0681-.045-.0355c.0267.03-.0434-.0748-.0266-.0347.0348.0827-.0186-.074,0-.0082.0068.0243.0148.048.02.0727.0072.0311.0131.0627.0186.0942l.007.0422c.0095.05-.0085-.0821-.0007-.0059a2.6419,2.6419,0,0,1,.0129.4007q-.0024.05-.0071.1l-.0042.0427c-.0071.0746,0-.0145.0036-.0237a.7236.7236,0,0,0-.0183.0911l-.0107.0379c-.0181.0676.0308-.0474.0049-.0116a.1355.1355,0,0,0-.0185.0308c.0017-.0087.0628-.071.0172-.0282-.0032.003.0708-.0517.0359-.03s.05-.0215.0464-.02a.25.25,0,0,1,.1315-.0014c-.008-.0022.09.04.053.0209-.0408-.0209.069.0595.0364.0256-.029-.03.0435.0717.0246.0319a.6672.6672,0,0,0-.0354-.0661c.0041.0064.033.0926.0161.0326l-.01-.0314c-.0082-.0283-.0152-.057-.0213-.0858l-.0076-.0382c-.0056-.0305,0-.0836,0,.0149,0-.0562-.01-.1128-.01-.1694q0-.0458.0023-.0915l.0039-.0521c.0043-.0623.004.0216-.0048.0273.0108-.007.0125-.0731.016-.09.0062-.0295.0133-.0589.0214-.0879s.0171-.0574.027-.0857l.0131-.036c.025-.0688-.03.0584-.0065.0171.0116-.02.0213-.0417.0335-.0618.0088-.0144.0409-.0536.0014-.0076s-.0113.0128-.003.0048a.2321.2321,0,0,0,.0305-.0308c-.0011.0023-.0706.0446-.0386.03a.1593.1593,0,0,0,.0263-.015q-.0924.0346-.0477.0232c.02-.0046.0128-.0035-.023.0031a.2628.2628,0,0,1-.0991-.0043c.0611.0121-.041-.0128-.039-.02l.0261.0155c.041.0218-.06-.0594-.0313-.022.0526.0672-.0312-.0613,0-.0019a.2817.2817,0,0,0,.0167.03c.0227.0327-.0271-.0914-.0087-.02a.7668.7668,0,0,0,.0235.1c0-.0013-.0065-.0836-.0064-.0407,0,.0216.003.0436.0035.0652a1.8556,1.8556,0,0,1-.0081.1972q-.0045.0526-.01.1052c-.0017.0153-.0089.0747-.0011.0136s-.0006.0008-.0028.0132a1.4628,1.4628,0,0,1-.0525.2018c-.0158.0493.0353-.0663.01-.025-.008.0129-.0143.0271-.0223.04s-.04.0548-.0014.0067.0043-.0071-.0051.0027c-.0123.0128-.0506.04,0,.0054.0526-.0365.0088-.0073-.0029,0-.0145.0086-.0588.0287.0013.002.0738-.0327-.0426-.0008.0419-.0116.0651-.0084.0281-.0034.0128-.0039q.1043.0191.0575.0068-.0289-.0087.02.01c.0574.0241.0245.01.0118.0021.0841.0532.0508.0365.025.0155-.0294-.024.03.0394.03.0384-.037-.0582.0142.064.0083.0267a.1618.1618,0,0,0-.0081-.0313q.01.0982.01.0506a.1875.1875,0,0,1,.0028-.0334.3943.3943,0,0,0-.1156-.2791.3948.3948,0,0,0-.5583,0,.456.456,0,0,0-.1156.2791.6731.6731,0,0,0,.341.6253.6591.6591,0,0,0,.7658-.1138,1.019,1.019,0,0,0,.2966-.5527,2.5232,2.5232,0,0,0,.0593-.6171.9887.9887,0,0,0-.2512-.6571.6275.6275,0,0,0-.75-.1266.9622.9622,0,0,0-.4063.535,1.76,1.76,0,0,0-.1069.5861c-.0091.4211.1324,1.059.6558,1.0836a.6572.6572,0,0,0,.6225-.4847,1.8533,1.8533,0,0,0,.0763-.6258c-.0036-.4095-.0735-1.1286-.6289-1.13-.53-.0019-.6677.6918-.6577,1.1024a1.8584,1.8584,0,0,0,.1578.704.6048.6048,0,0,0,.2484.2934.5213.5213,0,0,0,.5342-.0195.9387.9387,0,0,0,.3337-.7723,3.354,3.354,0,0,0-.0056-.67.4277.4277,0,0,0-.1157-.2791.3947.3947,0,0,0-.6738.2791Z"/><path class="t" d="M187.8488,124.2849a11.5727,11.5727,0,0,0,.4859,5.7232,12.1634,12.1634,0,0,0,.5344,1.2517c.1447.2954.4649.824.0379,1.0139a3.8288,3.8288,0,0,1-1.3082.11l-1.6435.0664c-.638.0258-.6413,1.0209,0,.9949l1.8079-.073a5.29,5.29,0,0,0,1.4082-.1393c1.0756-.3485,1.06-1.4208.6477-2.291a10.7817,10.7817,0,0,1-1.0109-6.3928c.1-.6263-.8583-.896-.9594-.2644Z"/><path d="M183.4058,136.0826a4.8873,4.8873,0,0,0,4.6,1.59.5022.5022,0,0,0,.3474-.612.5081.5081,0,0,0-.6119-.3474,3.8977,3.8977,0,0,1-3.6321-1.3344.5017.5017,0,0,0-.7036,0,.5081.5081,0,0,0,0,.7036Z"/><circle class="u" cx="189.3984" cy="138.2327" r="2.877"/><rect class="v" x="150.7497" y="188.5788" width="23.1658" height="15.3411" rx="1.3357" transform="translate(-10.6978 9.364) rotate(-3.1988)"/><rect class="w" x="152.5656" y="191.0894" width="6.4611" height="4.9358" transform="translate(-10.5578 8.995) rotate(-3.1988)"/><rect class="x" x="160.7481" y="190.5048" width="10.9195" height="1.5402" transform="translate(-10.4142 9.5724) rotate(-3.1988)"/><rect class="x" x="153.014" y="200.6323" width="19.2132" height="1.5402" transform="translate(-10.9849 9.388) rotate(-3.1988)"/><rect class="x" x="160.9018" y="193.2823" width="8.8711" height="1.5402" transform="translate(-10.5706 9.5282) rotate(-3.1988)"/><path class="u" d="M161.783,186.4174l-2.6276.1469a.5889.5889,0,0,0-.3993.9881l2.1359,2.3068a1.4038,1.4038,0,0,0,2.16-.1207l1.8656-2.53a.5889.5889,0,0,0-.5068-.9374Z"/><line class="y" x1="133.3148" y1="250.7938" x2="135.7902" y2="267.4973"/><line class="y" x1="138.0048" y1="203.9583" x2="142.2087" y2="186.2696"/><path class="y" d="M197.2879,265.93c.3472-7.424-2.471-14.4433-4.4463-21.4651a50.7546,50.7546,0,0,1-1.16-21.8123,20.056,20.056,0,0,1,2.1005-6.7005,11.307,11.307,0,0,1,3.7639-3.6038,16.7539,16.7539,0,0,0,4.7771-4.9718c4.02-6.5658-1.5582-11.73-2.523-16.1012s-.8193-11.8134-.8193-11.8134"/><path d="M190.4158,122.2836a3.4958,3.4958,0,0,1,.4389-.2268l-.1493.063a3.4739,3.4739,0,0,1,.8558-.2355l-.1661.0224a3.4558,3.4558,0,0,1,.592-.0271.63.63,0,0,0,.625-.625.6381.6381,0,0,0-.625-.625,3.97,3.97,0,0,0-2.2022.5746.6251.6251,0,0,0,.6309,1.0794Z"/><path d="M184.0856,121.5375a5.5123,5.5123,0,0,0-4.9048.1317.6251.6251,0,1,0,.6309,1.0793,4.217,4.217,0,0,1,3.643-.1316.6435.6435,0,0,0,.8551-.2243.63.63,0,0,0-.2242-.8551Z"/><rect class="x" x="20.2994" y="292.836" width="400.0959" height="173.299" transform="translate(440.6947 758.9709) rotate(180)"/><polygon class="z" points="0 246.8 0 292.836 420.395 292.836 420.395 466.135 473.064 466.135 473.064 246.8 0 246.8"/><rect class="aa" x="20.2994" y="292.836" width="400.0959" height="8.1053" transform="translate(440.6947 593.7772) rotate(180)"/><circle class="ab" cx="222.6419" cy="387.8183" r="54.7103"/><circle class="ac" cx="218.0528" cy="383.2292" r="54.7103"/><polygon class="p" points="248.495 373.748 227.534 373.748 227.534 352.787 208.571 352.787 208.571 373.748 187.611 373.748 187.611 392.711 208.571 392.711 208.571 413.671 227.534 413.671 227.534 392.711 248.495 392.711 248.495 373.748"/><rect class="ad" x="714.7953" y="47.4346" width="505.3294" height="357.2593"/><rect class="ae" x="714.7953" y="47.4346" width="505.3294" height="22.3174"/><circle class="p" cx="731.2194" cy="59.6193" r="4.2751"/><circle class="p" cx="749.9157" cy="59.6193" r="4.2751"/><circle class="p" cx="768.612" cy="59.6193" r="4.2751"/><rect class="af" x="732.2173" y="109.5937" width="110.4502" height="270.8726"/><rect class="k" x="732.2173" y="169.7948" width="2.8678" height="34.9569"/><rect class="ag" x="732.2173" y="274.9755" width="110.4502" height="35.267"/><rect class="c" x="737.499" y="356.1681" width="6.387" height="6.5097"/><line class="ah" x1="749.2091" y1="358.9588" x2="770.4476" y2="358.9588"/><line class="ah" x1="749.2091" y1="365.1582" x2="761.1498" y2="365.1582"/><line class="ai" x1="809.3822" y1="365.1582" x2="836.3438" y2="365.1582"/><rect class="aj" x="732.2173" y="169.7948" width="110.4502" height="34.9569"/><line class="ak" x1="732.2173" y1="204.7517" x2="842.6675" y2="204.7517"/><line class="ak" x1="732.2173" y1="169.7948" x2="842.6675" y2="169.7948"/><line class="ak" x1="732.2173" y1="144.0981" x2="842.6675" y2="144.0981"/><rect class="aj" x="732.2173" y="240.0186" width="110.4502" height="34.9569"/><line class="ak" x1="732.2173" y1="274.9755" x2="842.6675" y2="274.9755"/><line class="ak" x1="732.2173" y1="240.0186" x2="842.6675" y2="240.0186"/><rect class="aj" x="732.2173" y="310.2425" width="110.4502" height="34.9569"/><line class="ak" x1="732.2173" y1="345.1993" x2="842.6675" y2="345.1993"/><line class="ak" x1="732.2173" y1="310.2425" x2="842.6675" y2="310.2425"/><rect class="c" x="737.499" y="180.7635" width="6.387" height="6.5097"/><line class="ah" x1="749.2091" y1="183.5543" x2="770.4476" y2="183.5543"/><line class="ah" x1="749.2091" y1="189.7537" x2="761.1498" y2="189.7537"/><line class="ai" x1="809.3822" y1="189.7537" x2="836.3438" y2="189.7537"/><rect class="c" x="737.499" y="215.7204" width="6.387" height="6.5097"/><line class="ah" x1="749.2091" y1="218.5111" x2="770.4476" y2="218.5111"/><line class="ah" x1="749.2091" y1="224.7106" x2="761.1498" y2="224.7106"/><line class="ai" x1="809.3822" y1="224.7106" x2="836.3438" y2="224.7106"/><rect class="c" x="737.499" y="321.2112" width="6.387" height="6.5097"/><line class="ah" x1="749.2091" y1="324.002" x2="770.4476" y2="324.002"/><line class="ah" x1="749.2091" y1="330.2014" x2="761.1498" y2="330.2014"/><line class="ai" x1="809.3822" y1="330.2014" x2="836.3438" y2="330.2014"/><rect class="c" x="737.499" y="250.9874" width="6.387" height="6.5097"/><line class="ah" x1="749.2091" y1="253.7781" x2="770.4476" y2="253.7781"/><line class="ah" x1="749.2091" y1="259.9775" x2="761.1498" y2="259.9775"/><line class="ai" x1="809.3822" y1="259.9775" x2="836.3438" y2="259.9775"/><rect class="al" x="737.499" y="286.2543" width="6.387" height="6.5097"/><line class="ah" x1="749.2091" y1="289.0451" x2="770.4476" y2="289.0451"/><line class="ah" x1="749.2091" y1="295.2445" x2="761.1498" y2="295.2445"/><line class="ai" x1="809.3822" y1="295.2445" x2="836.3438" y2="295.2445"/><rect class="k" x="740.0127" y="115.5583" width="94.6529" height="22.2861" rx="2.3869"/><rect class="al" x="750.5229" y="149.1303" width="73.6319" height="15.5325" rx="2.6591"/><path class="p" d="M777.9359,122.7694h1.6963l-2.9141,7.9454h-1.9355l-2.9141-7.9454h1.7075l2.1856,6.3177Z"/><path class="p" d="M780.42,122.7238a.98.98,0,1,1,.979.9336A.9346.9346,0,0,1,780.42,122.7238Zm.1709,1.6848h1.5932v6.3062h-1.5932Z"/><path class="p" d="M786.17,130.8173c-1.5825,0-2.6865-.9221-2.7549-2.0945h1.605a1.047,1.047,0,0,0,1.1387.8423c.6259,0,.9672-.2847.9672-.6489,0-1.127-3.5629-.41-3.5629-2.7205,0-1.0474.9336-1.89,2.4931-1.89a2.2589,2.2589,0,0,1,2.5381,2.0832h-1.5254a.9392.9392,0,0,0-1.0586-.82c-.5918,0-.8989.2392-.8989.6035,0,1.15,3.4946.4324,3.54,2.7432C788.6512,129.9977,787.7064,130.8173,786.17,130.8173Z"/><path class="p" d="M789.7919,122.7238a.98.98,0,1,1,.979.9336A.9346.9346,0,0,1,789.7919,122.7238Zm.1709,1.6848h1.5932v6.3062h-1.5932Z"/><path class="p" d="M793.3788,125.7177h-.751v-1.3091h.751v-1.56h1.605v1.56h1.4116v1.3091h-1.4116v3.0505c0,.4212.1709.6033.6718.6033h.74v1.3433h-1.0015c-1.2065,0-2.0151-.5123-2.0151-1.9578Z"/><path class="p" d="M799.96,130.8173c-1.5825,0-2.6865-.9221-2.7549-2.0945h1.605a1.0471,1.0471,0,0,0,1.1387.8423c.626,0,.9673-.2847.9673-.6489,0-1.127-3.563-.41-3.563-2.7205,0-1.0474.9336-1.89,2.4932-1.89a2.2589,2.2589,0,0,1,2.538,2.0832h-1.5253a.9393.9393,0,0,0-1.0586-.82c-.5918,0-.899.2392-.899.6035,0,1.15,3.4947.4324,3.54,2.7432C802.4413,129.9977,801.4965,130.8173,799.96,130.8173Z"/><path class="p" d="M760.5565,154.2655h3.8906v.8587h-1.4135V159.57H761.97v-4.4453h-1.4136Z"/><path class="p" d="M767.0873,159.6379a2.1733,2.1733,0,1,1,2.1963-2.1734A2.1048,2.1048,0,0,1,767.0873,159.6379Zm0-.9271a1.1206,1.1206,0,0,0,1.102-1.2463,1.09,1.09,0,1,0-2.1582,0C766.0311,158.3,766.5174,158.7108,767.0873,158.7108Z"/><path class="p" d="M770.2284,156.2336h-.5015V155.36h.5015v-1.041H771.3v1.041h.9419v.8738H771.3V158.27c0,.281.1137.4026.4482.4026h.4937v.8967h-.6685c-.8057,0-1.3452-.342-1.3452-1.3071Z"/><path class="p" d="M774.6556,155.2914a1.6652,1.6652,0,0,1,1.3907.6687v-.6h1.0712v4.21h-1.0712v-.6155a1.6607,1.6607,0,0,1-1.3985.6839,1.9975,1.9975,0,0,1-1.9145-2.1885A1.9712,1.9712,0,0,1,774.6556,155.2914Zm.2735.9346a1.1227,1.1227,0,0,0-1.1094,1.2234,1.1505,1.1505,0,0,0,1.1094,1.2539,1.2453,1.2453,0,0,0,0-2.4773Z"/><path class="p" d="M778.1537,153.9464h1.0639V159.57h-1.0639Z"/><path class="p" d="M786.7211,156.925a2.5555,2.5555,0,0,1-2.7964,2.6445h-1.854v-5.304h1.854A2.5629,2.5629,0,0,1,786.7211,156.925Zm-2.8345,1.74a1.5866,1.5866,0,0,0,1.748-1.74,1.6034,1.6034,0,0,0-1.748-1.7627h-.752v3.5029Z"/><path class="p" d="M791.4882,159.57h-1.0713v-.532a1.5528,1.5528,0,0,1-1.2539.5852,1.6222,1.6222,0,0,1-1.6871-1.7934V155.36h1.064v2.3176a.9435.9435,0,1,0,1.877,0V155.36h1.0713Z"/><path class="p" d="M794.3705,159.6379a2.1741,2.1741,0,0,1,0-4.3465,1.976,1.976,0,0,1,2.0742,2.082,2.466,2.466,0,0,1-.03.41h-3.0776a.9852.9852,0,0,0,1.0107.9727.8676.8676,0,0,0,.8438-.5093h1.1474A1.9567,1.9567,0,0,1,794.3705,159.6379Zm-1.0259-2.5684h1.9985a.9353.9353,0,0,0-1.0029-.9043A.9775.9775,0,0,0,793.3446,157.07Z"/><path class="p" d="M797.6869,156.4767a.6234.6234,0,1,1,.6455-.623A.6258.6258,0,0,1,797.6869,156.4767Zm0,3.146a.6235.6235,0,1,1,.6455-.623A.6259.6259,0,0,1,797.6869,159.6227Z"/><path class="p" d="M803.2679,155.6637a.8533.8533,0,0,0-.7368-.5625.4816.4816,0,0,0-.5093.4864c0,.3344.3648.5852.7979.79.6382.281,1.4819.6763,1.4741,1.5957a1.5185,1.5185,0,0,1-1.2461,1.6108v.6687h-.9272V159.57a1.8412,1.8412,0,0,1-1.36-1.4287l.7979-.5015c.205.7219.5547,1.0791,1.0561,1.0791a.6092.6092,0,0,0,.6914-.6914c0-.3115-.3418-.5547-.79-.7449-.6309-.2658-1.4517-.6687-1.4365-1.6489a1.4063,1.4063,0,0,1,1.041-1.3906v-.6763h.9272v.6917a1.5668,1.5668,0,0,1,1.0181.8965Z"/><path class="p" d="M808.6966,154.0148v.9346h-2.4619v1.2993a1.4458,1.4458,0,0,1,1.0869-.4483,1.6671,1.6671,0,0,1,1.7325,1.8313,1.9619,1.9619,0,0,1-3.8833.3724h1.0337a.8666.8666,0,0,0,.9194.6687c.623,0,.9043-.4407.9043-1.0259a.8418.8418,0,0,0-.9121-.9651.828.828,0,0,0-.8355.5852h-1.0185v-3.2522Z"/><path class="p" d="M811.9144,153.9235c1.5655,0,2.0518,1.2007,2.0518,2.804,0,1.6186-.4863,2.8269-2.0518,2.8269s-2.0517-1.2083-2.0517-2.8269C809.8627,155.1242,810.349,153.9235,811.9144,153.9235Zm0,.9878c-.897,0-1.0034.8664-1.0034,1.8162,0,.988.1064,1.8391,1.0034,1.8391s1.003-.8511,1.003-1.8391C812.9174,155.7777,812.8109,154.9113,811.9144,154.9113Z"/><rect class="k" x="769.3735" y="85.392" width="20.9273" height="12.5828" rx="2.3068"/><line class="ah" x1="732.2173" y1="91.6834" x2="763.7079" y2="91.6834"/><line class="am" x1="773.0676" y1="91.6834" x2="786.6066" y2="91.6834"/><line class="ah" x1="797.3673" y1="91.6834" x2="821.0237" y2="91.6834"/><line class="ah" x1="888.8931" y1="91.6834" x2="907.5491" y2="91.6834"/><line class="ah" x1="857.8533" y1="91.6834" x2="878.6001" y2="91.6834"/><line class="ah" x1="833.2466" y1="91.6834" x2="846.4345" y2="91.6834"/><rect class="af" x="852.3787" y="109.5937" width="350.324" height="284.5581"/><rect class="an" x="852.3787" y="109.5937" width="350.324" height="15.9044"/><rect class="ae" x="1184.5872" y="130.8521" width="13.2621" height="10.8461"/><rect class="ae" x="1090.2786" y="112.4963" width="11.565" height="9.7857" rx="0.8635"/><rect class="k" x="1102.9452" y="112.4963" width="32.0055" height="9.7857" rx="0.8635"/><rect class="c" x="1136.404" y="112.4963" width="30.5935" height="9.7857" rx="0.8635"/><rect class="al" x="1168.3094" y="112.4963" width="29.5399" height="9.7857" rx="0.8635"/><rect class="ao" x="857.8533" y="130.8521" width="339.9961" height="10.8461"/><path d="M859.1869,153.9345h2.7065v13.4944h-2.7065Z"/><path d="M872.0609,161.5131c0-1.7207-.9473-2.6487-2.3779-2.6487a2.3253,2.3253,0,0,0-2.4165,2.6487v5.9158H864.56v-10.71h2.7066v1.334a4,4,0,0,1,3.2285-1.4885c2.4941,0,4.2724,1.6238,4.2724,4.5818v6.2832h-2.7065Z"/><path d="M879.0941,156.7184l2.7066,8.2166,2.7065-8.2166h2.8809l-3.9634,10.71h-3.2866l-3.9439-10.71Z"/><path d="M893.6674,167.6029a5.5295,5.5295,0,1,1,5.5874-5.5293A5.3548,5.3548,0,0,1,893.6674,167.6029Zm0-2.3586a2.8508,2.8508,0,0,0,2.8032-3.1707c0-2.146-1.334-3.1706-2.7647-3.1706s-2.726,1.0246-2.726,3.1706C890.98,164.2,892.2172,165.2443,893.6674,165.2443Z"/><path d="M900.952,153.8571a1.6645,1.6645,0,1,1,1.6626,1.5854A1.5871,1.5871,0,0,1,900.952,153.8571Zm.29,2.8613h2.7065v10.71h-2.7065Z"/><path d="M911.2157,156.5443a4.7784,4.7784,0,0,1,5.0459,3.7894h-2.919a2.1044,2.1044,0,0,0-2.146-1.4886c-1.5083,0-2.5136,1.1407-2.5136,3.2285s1.0053,3.2093,2.5136,3.2093a2.0427,2.0427,0,0,0,2.146-1.4693h2.919a4.8853,4.8853,0,0,1-5.0459,3.7893c-3.0933,0-5.2969-2.1652-5.2969-5.5293S908.1224,156.5443,911.2157,156.5443Z"/><path d="M922.9281,167.6029a5.5315,5.5315,0,0,1,0-11.0586,5.0283,5.0283,0,0,1,5.2778,5.2974,6.3159,6.3159,0,0,1-.0776,1.044h-7.83A2.5058,2.5058,0,0,0,922.87,165.36a2.2076,2.2076,0,0,0,2.146-1.2954h2.9189A4.9774,4.9774,0,0,1,922.9281,167.6029Zm-2.61-6.5346h5.085a2.38,2.38,0,0,0-2.5522-2.3006A2.4874,2.4874,0,0,0,920.3177,161.0683Z"/><rect class="an" x="857.8533" y="180.4582" width="339.9961" height="31.6575"/><rect class="an" x="857.8533" y="244.9825" width="339.9961" height="31.6575"/><path class="ae" d="M1113.7172,325.3461a2.1716,2.1716,0,0,0-1.8755-1.4307,1.2248,1.2248,0,0,0-1.2954,1.2373c0,.8506.9282,1.4886,2.03,2.0105,1.6241.7154,3.77,1.7207,3.7505,4.06a3.8645,3.8645,0,0,1-3.17,4.0984v1.7014h-2.3589v-1.74a4.6854,4.6854,0,0,1-3.46-3.6345l2.03-1.2761c.5219,1.8366,1.4111,2.7453,2.6875,2.7453a1.55,1.55,0,0,0,1.7592-1.7592c0-.7928-.87-1.4114-2.0107-1.8946-1.6045-.6767-3.6924-1.7014-3.6538-4.1953a3.5767,3.5767,0,0,1,2.6484-3.5378V320.01h2.3589v1.7592a3.9872,3.9872,0,0,1,2.59,2.2813Z"/><path class="ae" d="M1122.7015,333.0793c3.19-2.7068,6.5342-5.2007,6.5342-7.7913,0-1.2566-.5605-2.1072-1.8945-2.1072-1.2954,0-2.0108.928-2.03,2.4165h-2.6294c.0967-3.2285,2.1655-4.7173,4.6978-4.7173,3.0356,0,4.5629,1.7981,4.5629,4.2535,0,3.267-3.1513,5.819-5.394,7.7136h5.7031V335.09h-9.55Z"/><path class="ae" d="M1139.17,320.9189c3.9824,0,5.22,3.0544,5.22,7.1337,0,4.118-1.2373,7.1919-5.22,7.1919s-5.22-3.0739-5.22-7.1919C1133.95,323.9733,1135.1869,320.9189,1139.17,320.9189Zm0,2.5131c-2.2813,0-2.5523,2.2039-2.5523,4.6206,0,2.5132.271,4.6785,2.5523,4.6785s2.5518-2.1653,2.5518-4.6785C1141.7216,325.6359,1141.451,323.432,1139.17,323.432Z"/><path class="ae" d="M1151.6547,320.9189c3.9824,0,5.22,3.0544,5.22,7.1337,0,4.118-1.2373,7.1919-5.22,7.1919s-5.22-3.0739-5.22-7.1919C1146.4344,323.9733,1147.6717,320.9189,1151.6547,320.9189Zm0,2.5131c-2.2813,0-2.5523,2.2039-2.5523,4.6206,0,2.5132.271,4.6785,2.5523,4.6785s2.5517-2.1653,2.5517-4.6785C1154.2064,325.6359,1153.9359,323.432,1151.6547,323.432Z"/><path class="ae" d="M1160.4281,335.4184a1.5862,1.5862,0,1,1,1.6431-1.5852A1.5924,1.5924,0,0,1,1160.4281,335.4184Z"/><path class="ae" d="M1169.1649,320.9189c3.9824,0,5.22,3.0544,5.22,7.1337,0,4.118-1.2373,7.1919-5.22,7.1919s-5.22-3.0739-5.22-7.1919C1163.9447,323.9733,1165.182,320.9189,1169.1649,320.9189Zm0,2.5131c-2.2812,0-2.5522,2.2039-2.5522,4.6206,0,2.5132.271,4.6785,2.5522,4.6785s2.5518-2.1653,2.5518-4.6785C1171.7167,325.6359,1171.4462,323.432,1169.1649,323.432Z"/><path class="ae" d="M1181.65,320.9189c3.9824,0,5.22,3.0544,5.22,7.1337,0,4.118-1.2373,7.1919-5.22,7.1919s-5.22-3.0739-5.22-7.1919C1176.43,323.9733,1177.6669,320.9189,1181.65,320.9189Zm0,2.5131c-2.2813,0-2.5523,2.2039-2.5523,4.6206,0,2.5132.271,4.6785,2.5523,4.6785s2.5517-2.1653,2.5517-4.6785C1184.2015,325.6359,1183.931,323.432,1181.65,323.432Z"/><path class="ae" d="M1144.557,194.5587a1.4931,1.4931,0,0,0-1.2891-.9833.8419.8419,0,0,0-.8906.8505c0,.5848.6377,1.0232,1.3955,1.3821,1.1162.4917,2.5918,1.1829,2.5781,2.791a2.6564,2.6564,0,0,1-2.18,2.8177v1.1694H1142.55V201.39a3.22,3.22,0,0,1-2.3789-2.4985l1.3955-.8772c.3589,1.2625.97,1.8872,1.8471,1.8872a1.0656,1.0656,0,0,0,1.2095-1.2094c0-.545-.5981-.97-1.3823-1.3025-1.103-.4651-2.5386-1.1695-2.5117-2.8841a2.4592,2.4592,0,0,1,1.8208-2.4321v-1.1829h1.6211V192.1a2.742,2.742,0,0,1,1.7812,1.5684Z"/><path class="ae" d="M1157.3509,191.6747V193.31h-4.3061v2.2727a2.5279,2.5279,0,0,1,1.9-.7842,2.9156,2.9156,0,0,1,3.03,3.2029,3.11,3.11,0,0,1-3.3492,3.3891c-2.0864,0-3.2827-1.1562-3.4423-2.7377h1.8076a1.5161,1.5161,0,0,0,1.6084,1.1694c1.0893,0,1.5815-.7708,1.5815-1.7942a1.4721,1.4721,0,0,0-1.5952-1.6877,1.4488,1.4488,0,0,0-1.4619,1.0231h-1.7808v-5.6882Z"/><path class="ae" d="M1162.9828,191.5153c2.7378,0,3.5884,2.1,3.5884,4.904,0,2.8311-.8506,4.9441-3.5884,4.9441s-3.5884-2.113-3.5884-4.9441C1159.3944,193.6151,1160.245,191.5153,1162.9828,191.5153Zm0,1.7278c-1.5684,0-1.7544,1.5151-1.7544,3.1762,0,1.7278.186,3.2164,1.7544,3.2164s1.7544-1.4886,1.7544-3.2164C1164.7372,194.7582,1164.5507,193.2431,1162.9828,193.2431Z"/><path class="ae" d="M1169.0131,201.4831a1.0905,1.0905,0,1,1,1.1293-1.09A1.0949,1.0949,0,0,1,1169.0131,201.4831Z"/><path class="ae" d="M1175.0189,191.5153c2.7378,0,3.5884,2.1,3.5884,4.904,0,2.8311-.8506,4.9441-3.5884,4.9441s-3.5884-2.113-3.5884-4.9441C1171.4305,193.6151,1172.2811,191.5153,1175.0189,191.5153Zm0,1.7278c-1.5683,0-1.7544,1.5151-1.7544,3.1762,0,1.7278.1861,3.2164,1.7544,3.2164s1.7544-1.4886,1.7544-3.2164C1176.7733,194.7582,1176.5868,193.2431,1175.0189,193.2431Z"/><path class="ae" d="M1183.6014,191.5153c2.7378,0,3.5884,2.1,3.5884,4.904,0,2.8311-.8506,4.9441-3.5884,4.9441s-3.5883-2.113-3.5883-4.9441C1180.0131,193.6151,1180.8636,191.5153,1183.6014,191.5153Zm0,1.7278c-1.5683,0-1.7544,1.5151-1.7544,3.1762,0,1.7278.1861,3.2164,1.7544,3.2164s1.7544-1.4886,1.7544-3.2164C1185.3558,194.7582,1185.1693,193.2431,1183.6014,193.2431Z"/><path class="ae" d="M1139.7216,226.9591a1.4934,1.4934,0,0,0-1.2891-.9834.8419.8419,0,0,0-.8906.8506c0,.5847.6377,1.0232,1.3955,1.3821,1.1162.4917,2.5918,1.1829,2.5781,2.791a2.6565,2.6565,0,0,1-2.1792,2.8177v1.1694h-1.6216V233.79a3.22,3.22,0,0,1-2.3789-2.4985l1.3955-.8772c.3589,1.2625.97,1.8872,1.8472,1.8872a1.0656,1.0656,0,0,0,1.2095-1.2095c0-.5449-.5982-.97-1.3824-1.3024-1.103-.4651-2.5385-1.1695-2.5117-2.8841a2.4593,2.4593,0,0,1,1.8208-2.4321v-1.1829h1.6216v1.21a2.7427,2.7427,0,0,1,1.7808,1.5684Z"/><path class="ae" d="M1147.0663,225.8161h-1.2891v-1.7144h3.2031V233.79h-1.914Z"/><path class="ae" d="M1154.4012,223.9157c2.7378,0,3.5884,2.1,3.5884,4.904,0,2.8311-.8506,4.9441-3.5884,4.9441s-3.5883-2.113-3.5883-4.9441C1150.8129,226.0155,1151.6634,223.9157,1154.4012,223.9157Zm0,1.7278c-1.5683,0-1.7544,1.5151-1.7544,3.1762,0,1.7278.1861,3.2163,1.7544,3.2163s1.7544-1.4885,1.7544-3.2163C1156.1556,227.1586,1155.9691,225.6435,1154.4012,225.6435Z"/><path class="ae" d="M1162.9833,223.9157c2.7378,0,3.5883,2.1,3.5883,4.904,0,2.8311-.8505,4.9441-3.5883,4.9441s-3.5884-2.113-3.5884-4.9441C1159.3949,226.0155,1160.2455,223.9157,1162.9833,223.9157Zm0,1.7278c-1.5684,0-1.7544,1.5151-1.7544,3.1762,0,1.7278.186,3.2163,1.7544,3.2163s1.7544-1.4885,1.7544-3.2163C1164.7377,227.1586,1164.5511,225.6435,1162.9833,225.6435Z"/><path class="ae" d="M1169.0135,233.8835a1.0905,1.0905,0,1,1,1.1294-1.09A1.0946,1.0946,0,0,1,1169.0135,233.8835Z"/><path class="ae" d="M1175.0194,223.9157c2.7378,0,3.5884,2.1,3.5884,4.904,0,2.8311-.8506,4.9441-3.5884,4.9441s-3.5884-2.113-3.5884-4.9441C1171.431,226.0155,1172.2816,223.9157,1175.0194,223.9157Zm0,1.7278c-1.5684,0-1.7544,1.5151-1.7544,3.1762,0,1.7278.186,3.2163,1.7544,3.2163s1.7544-1.4885,1.7544-3.2163C1176.7738,227.1586,1176.5873,225.6435,1175.0194,225.6435Z"/><path class="ae" d="M1183.6014,223.9157c2.7378,0,3.5884,2.1,3.5884,4.904,0,2.8311-.8506,4.9441-3.5884,4.9441s-3.5883-2.113-3.5883-4.9441C1180.0131,226.0155,1180.8636,223.9157,1183.6014,223.9157Zm0,1.7278c-1.5683,0-1.7544,1.5151-1.7544,3.1762,0,1.7278.1861,3.2163,1.7544,3.2163s1.7544-1.4885,1.7544-3.2163C1185.3558,227.1586,1185.1693,225.6435,1183.6014,225.6435Z"/><path class="ae" d="M1144.3314,259.3983a1.4931,1.4931,0,0,0-1.289-.9833.8419.8419,0,0,0-.8907.85c0,.5848.6377,1.0232,1.3955,1.3821,1.1162.4917,2.5918,1.1829,2.5782,2.791a2.6564,2.6564,0,0,1-2.18,2.8177v1.1694h-1.6211V266.23a3.22,3.22,0,0,1-2.3789-2.4985l1.3955-.8772c.3589,1.2625.97,1.8872,1.8471,1.8872a1.0656,1.0656,0,0,0,1.2095-1.2095c0-.5449-.5981-.97-1.3823-1.3024-1.103-.4651-2.5386-1.1695-2.5117-2.8841a2.4593,2.4593,0,0,1,1.8208-2.4321V255.73h1.6211V256.94a2.742,2.742,0,0,1,1.7812,1.5684Z"/><path class="ae" d="M1155.1849,264.3424h-4.6518v-1.4619l4.3462-6.22h2.166v6.06h1.17v1.6215h-1.17V266.23h-1.86Zm.12-1.6215v-4.0667l-2.7247,4.0667Z"/><path class="ae" d="M1162.9833,256.3549c2.7378,0,3.5883,2.1,3.5883,4.904,0,2.8311-.8505,4.9441-3.5883,4.9441s-3.5884-2.113-3.5884-4.9441C1159.3949,258.4547,1160.2455,256.3549,1162.9833,256.3549Zm0,1.7278c-1.5684,0-1.7544,1.5151-1.7544,3.1762,0,1.7278.186,3.2164,1.7544,3.2164s1.7544-1.4886,1.7544-3.2164C1164.7377,259.5978,1164.5511,258.0827,1162.9833,258.0827Z"/><path class="ae" d="M1169.0135,266.3227a1.0905,1.0905,0,1,1,1.1294-1.09A1.0946,1.0946,0,0,1,1169.0135,266.3227Z"/><path class="ae" d="M1175.0194,256.3549c2.7378,0,3.5884,2.1,3.5884,4.904,0,2.8311-.8506,4.9441-3.5884,4.9441s-3.5884-2.113-3.5884-4.9441C1171.431,258.4547,1172.2816,256.3549,1175.0194,256.3549Zm0,1.7278c-1.5684,0-1.7544,1.5151-1.7544,3.1762,0,1.7278.186,3.2164,1.7544,3.2164s1.7544-1.4886,1.7544-3.2164C1176.7738,259.5978,1176.5873,258.0827,1175.0194,258.0827Z"/><path class="ae" d="M1183.6014,256.3549c2.7378,0,3.5884,2.1,3.5884,4.904,0,2.8311-.8506,4.9441-3.5884,4.9441s-3.5883-2.113-3.5883-4.9441C1180.0131,258.4547,1180.8636,256.3549,1183.6014,256.3549Zm0,1.7278c-1.5683,0-1.7544,1.5151-1.7544,3.1762,0,1.7278.1861,3.2164,1.7544,3.2164s1.7544-1.4886,1.7544-3.2164C1185.3558,259.5978,1185.1693,258.0827,1183.6014,258.0827Z"/><line class="ao" x1="857.8533" y1="180.4582" x2="1197.8494" y2="180.4582"/><line class="ao" x1="857.8533" y1="212.7176" x2="1197.8494" y2="212.7176"/><line class="ao" x1="857.8533" y1="308.9669" x2="1197.8494" y2="308.9669"/><line class="ao" x1="857.8533" y1="244.9771" x2="1197.8494" y2="244.9771"/><line class="ao" x1="857.8533" y1="277.2365" x2="1197.8494" y2="277.2365"/><line class="ao" x1="857.8533" y1="349.2379" x2="1197.8494" y2="349.2379"/><rect class="ap" x="1122.9247" y="172.1899" width="20.7356" height="6.3399" rx="0.5594"/><rect class="ap" x="1177.1138" y="172.1899" width="20.7356" height="6.3399" rx="0.5594"/><rect class="ap" x="1145.0669" y="172.1899" width="30.5887" height="6.3399" rx="0.5594"/><rect class="aq" x="857.8533" y="358.0273" width="339.9961" height="27.5044"/><line class="ah" x1="890.4589" y1="196.9921" x2="928.5345" y2="196.9921"/><line class="ah" x1="861.6552" y1="196.9921" x2="881.869" y2="196.9921"/><line class="ah" x1="861.6552" y1="227.8439" x2="909.4967" y2="227.8439"/><line class="ah" x1="978.8868" y1="196.9921" x2="997.791" y2="196.9921"/><line class="ah" x1="1027.8513" y1="196.9921" x2="1035.2676" y2="196.9921"/><line class="ah" x1="1050.5236" y1="196.9921" x2="1071.5377" y2="196.9921"/><line class="ah" x1="1090.2786" y1="196.9921" x2="1102.9452" y2="196.9921"/><line class="ah" x1="890.4589" y1="260.8113" x2="928.5345" y2="260.8113"/><line class="ah" x1="861.6552" y1="260.8113" x2="881.869" y2="260.8113"/><line class="ah" x1="978.8868" y1="260.8113" x2="997.791" y2="260.8113"/><line class="ah" x1="1027.8513" y1="260.8113" x2="1035.2676" y2="260.8113"/><line class="ah" x1="1050.5236" y1="260.8113" x2="1071.5377" y2="260.8113"/><line class="ah" x1="1090.2786" y1="260.8113" x2="1102.9452" y2="260.8113"/><line class="ah" x1="978.8868" y1="227.8439" x2="997.791" y2="227.8439"/><line class="ah" x1="1027.8513" y1="227.8439" x2="1035.2676" y2="227.8439"/><line class="ah" x1="1050.5236" y1="227.8439" x2="1071.5377" y2="227.8439"/><line class="ah" x1="1090.2786" y1="227.8439" x2="1102.9452" y2="227.8439"/><path class="ae" d="M1148.3036,291.6523a1.4931,1.4931,0,0,0-1.2891-.9834.8419.8419,0,0,0-.8906.8505c0,.5848.6377,1.0232,1.3955,1.3821,1.1162.4917,2.5918,1.1829,2.5781,2.791a2.6564,2.6564,0,0,1-2.1792,2.8177V299.68h-1.6216v-1.196a3.2206,3.2206,0,0,1-2.3789-2.4986l1.3955-.8772c.3589,1.2625.97,1.8872,1.8472,1.8872a1.0656,1.0656,0,0,0,1.2095-1.2094c0-.545-.5982-.97-1.3823-1.3025-1.1031-.4651-2.5386-1.1695-2.5118-2.8841a2.4593,2.4593,0,0,1,1.8208-2.4321V287.984h1.6216v1.2095a2.7425,2.7425,0,0,1,1.7808,1.5684Z"/><path class="ae" d="M1155.6483,290.5094h-1.2891v-1.7146h3.2032v9.6888h-1.9141Z"/><path class="ae" d="M1162.9833,288.6088c2.7378,0,3.5883,2.1,3.5883,4.9041,0,2.831-.8505,4.944-3.5883,4.944s-3.5884-2.113-3.5884-4.944C1159.3949,290.7087,1160.2455,288.6088,1162.9833,288.6088Zm0,1.7278c-1.5684,0-1.7544,1.5151-1.7544,3.1763,0,1.7277.186,3.2163,1.7544,3.2163s1.7544-1.4886,1.7544-3.2163C1164.7377,291.8517,1164.5511,290.3366,1162.9833,290.3366Z"/><path class="ae" d="M1169.0135,298.5766a1.0905,1.0905,0,1,1,1.1294-1.09A1.0946,1.0946,0,0,1,1169.0135,298.5766Z"/><path class="ae" d="M1175.0194,288.6088c2.7378,0,3.5884,2.1,3.5884,4.9041,0,2.831-.8506,4.944-3.5884,4.944s-3.5884-2.113-3.5884-4.944C1171.431,290.7087,1172.2816,288.6088,1175.0194,288.6088Zm0,1.7278c-1.5684,0-1.7544,1.5151-1.7544,3.1763,0,1.7277.186,3.2163,1.7544,3.2163s1.7544-1.4886,1.7544-3.2163C1176.7738,291.8517,1176.5873,290.3366,1175.0194,290.3366Z"/><path class="ae" d="M1183.6014,288.6088c2.7378,0,3.5884,2.1,3.5884,4.9041,0,2.831-.8506,4.944-3.5884,4.944s-3.5883-2.113-3.5883-4.944C1180.0131,290.7087,1180.8636,288.6088,1183.6014,288.6088Zm0,1.7278c-1.5683,0-1.7544,1.5151-1.7544,3.1763,0,1.7277.1861,3.2163,1.7544,3.2163s1.7544-1.4886,1.7544-3.2163C1185.3558,291.8517,1185.1693,290.3366,1183.6014,290.3366Z"/><line class="ah" x1="1106.7038" y1="293.0653" x2="1131.192" y2="293.0653"/><rect class="ar" x="960.9171" y="364.1389" width="95.911" height="15.281" rx="1.9613"/><path class="as" d="M991.7685,364.139h-28.89a1.9611,1.9611,0,0,0-1.9612,1.961v11.3586a1.9614,1.9614,0,0,0,1.9612,1.9614h28.89Z"/><line class="at" x1="991.7685" y1="379.42" x2="991.7685" y2="364.139"/><line class="ai" x1="969.0374" y1="371.7794" x2="983.2437" y2="371.7794"/><line class="ai" x1="1000.3508" y1="371.7794" x2="1026.2166" y2="371.7794"/><polygon class="ae" points="1046.693 371.057 1052.435 371.057 1049.564 373.667 1046.693 371.057"/><rect class="at" x="960.9171" y="364.1389" width="95.911" height="15.281" rx="1.9613"/><rect class="ar" x="864.033" y="364.1389" width="76.9323" height="15.281" rx="1.9613"/><path class="as" d="M894.8844,364.139h-28.89a1.9611,1.9611,0,0,0-1.9612,1.961v11.3586a1.9614,1.9614,0,0,0,1.9612,1.9614h28.89Z"/><line class="at" x1="894.8844" y1="379.42" x2="894.8844" y2="364.139"/><line class="ai" x1="872.1533" y1="371.7794" x2="886.3596" y2="371.7794"/><line class="ai" x1="903.4667" y1="371.7794" x2="918.7816" y2="371.7794"/><polygon class="ae" points="930.83 371.057 936.572 371.057 933.701 373.667 930.83 371.057"/><rect class="at" x="864.033" y="364.1389" width="76.9323" height="15.281" rx="1.9613"/><rect class="k" x="1074.0942" y="363.0926" width="117.5754" height="17.3737" rx="1.9095"/><path class="p" d="M1103.4257,368.633c1.2768,0,1.915.737,1.915,1.6259a1.5315,1.5315,0,0,1-1.2085,1.5276l1.269,2.15H1104.17L1103,371.87h-.5015v2.0669h-1.064V368.633Zm-.0381.8813h-.8887v1.5579h.8887c.5927,0,.8589-.3115.8589-.79C1104.2465,369.8107,1103.98,369.5143,1103.3876,369.5143Z"/><path class="p" d="M1108.14,374.0053a2.1741,2.1741,0,0,1,0-4.3465,1.9761,1.9761,0,0,1,2.0742,2.0821,2.4782,2.4782,0,0,1-.03.41h-3.0777a.9852.9852,0,0,0,1.0108.9726.8676.8676,0,0,0,.8437-.5092h1.1475A1.957,1.957,0,0,1,1108.14,374.0053Zm-1.0259-2.5684h1.9986a.9355.9355,0,0,0-1.003-.9043A.9776.9776,0,0,0,1107.1141,371.4369Z"/><path class="p" d="M1112.7933,369.6588a1.8785,1.8785,0,0,1,1.9834,1.4893h-1.1474a.8271.8271,0,0,0-.8438-.585c-.5928,0-.9878.4483-.9878,1.2688s.395,1.2615.9878,1.2615a.8032.8032,0,0,0,.8438-.5774h1.1474a1.9206,1.9206,0,0,1-1.9834,1.4893,2.1752,2.1752,0,0,1,0-4.3465Z"/><path class="p" d="M1117.4242,374.0053a2.1733,2.1733,0,1,1,2.1963-2.1734A2.1048,2.1048,0,0,1,1117.4242,374.0053Zm0-.927a1.1207,1.1207,0,0,0,1.102-1.2464,1.09,1.09,0,1,0-2.1582,0C1116.368,372.6679,1116.8544,373.0783,1117.4242,373.0783Z"/><path class="p" d="M1121.4623,373.9369h-1.064v-4.21h1.064v.6533a1.4591,1.4591,0,0,1,1.2915-.7141v1.117h-.2813c-.63,0-1.01.2431-1.01,1.0561Z"/><path class="p" d="M1125.1215,369.6588a1.7273,1.7273,0,0,1,1.3754.6534v-1.9986h1.0791v5.6233h-1.0791v-.623a1.59,1.59,0,0,1-1.3828.6914,1.9986,1.9986,0,0,1-1.9223-2.1885A1.9723,1.9723,0,0,1,1125.1215,369.6588Zm.2661.9346a1.1228,1.1228,0,0,0-1.1094,1.2234,1.15,1.15,0,0,0,1.1094,1.2539,1.2453,1.2453,0,0,0,0-2.4773Z"/><path class="p" d="M1132.3715,371.9005h-.8887v2.0364h-1.064V368.633h1.9527c1.2768,0,1.915.7219,1.915,1.6413C1134.2865,371.08,1133.74,371.9005,1132.3715,371.9005Zm-.0455-.8588c.6,0,.8663-.2964.8663-.7674,0-.4863-.2662-.7751-.8663-.7751h-.8432v1.5425Z"/><path class="p" d="M1136.683,369.6588a1.6651,1.6651,0,0,1,1.3906.6687v-.6h1.0713v4.21h-1.0713v-.6155a1.6606,1.6606,0,0,1-1.3984.6839,1.9976,1.9976,0,0,1-1.9146-2.1885A1.9712,1.9712,0,0,1,1136.683,369.6588Zm.2734.9346a1.1229,1.1229,0,0,0-1.1094,1.2234,1.1505,1.1505,0,0,0,1.1094,1.2539,1.2453,1.2453,0,0,0,0-2.4773Z"/><path class="p" d="M1143.076,369.7272h1.1324l-2.6065,6.2007H1140.47l.9121-2.0974-1.687-4.1033h1.1929l1.0869,2.9407Z"/><path class="p" d="M1150.663,371.6117a.9416.9416,0,1,0-1.877,0v2.3252h-1.064v-2.3252a.945.945,0,1,0-1.8842,0v2.3252h-1.064v-4.21h1.064v.509a1.5312,1.5312,0,0,1,1.2382-.57,1.6108,1.6108,0,0,1,1.482.8054,1.6663,1.6663,0,0,1,1.4438-.8054,1.6373,1.6373,0,0,1,1.7251,1.8008v2.47h-1.0639Z"/><path class="p" d="M1154.5687,374.0053a2.1741,2.1741,0,0,1,0-4.3465,1.9761,1.9761,0,0,1,2.0742,2.0821,2.4782,2.4782,0,0,1-.03.41h-3.0777a.9852.9852,0,0,0,1.0108.9726.8676.8676,0,0,0,.8437-.5092h1.1475A1.9569,1.9569,0,0,1,1154.5687,374.0053Zm-1.0259-2.5684h1.9986a.9355.9355,0,0,0-1.003-.9043A.9776.9776,0,0,0,1153.5428,371.4369Z"/><path class="p" d="M1160.3617,371.6117a.9468.9468,0,1,0-1.8843,0v2.3252h-1.064v-4.21h1.064v.5242a1.572,1.572,0,0,1,1.2691-.585,1.6191,1.6191,0,0,1,1.6792,1.8008v2.47h-1.064Z"/><path class="p" d="M1162.5985,370.601h-.5015v-.8738h.5015v-1.041h1.0718v1.041h.9419v.8738h-.9419v2.0366c0,.281.1138.4026.4482.4026h.4937v.8967h-.6685c-.8056,0-1.3452-.342-1.3452-1.3069Z"/><line class="ah" x1="861.6552" y1="118.3745" x2="954.2141" y2="118.3745"/><path class="c" d="M1219.9532,380.6951c0-.2613.4354-10.2744-8.5329-15.4116,0,0-2.2639,5.2243-12.7124,2.7863s-10.8839-5.3984-11.4063-6.9657,1.8285-4.3535,6.8786-4.7018,13.8443.3483,17.6754,7.4881c0,0,8.8812,4.7018,9.4907,16.8047Z"/><path class="c" d="M1218.4313,380.9186s-2.7487-8.6627-9.7039-6.2055c0,0-3.1652-2.832-7.7465,1.5826s-8.417,8.0767-6.9025,11.462,5.7016,3.8307,9.6215,0,6.7706-9.0869,5.88-11.9377c0,0,3.7417-2.7221,7.84,4.8751Z"/><path class="c" d="M1226.2293,356.9446c2.9-2.7065,3.52-7.1733,3.327-9.6864a25.8088,25.8088,0,0,0-2.6419-10.89c-2.2553-4.1885-5.8638-3.48-7.2814-.5155a20.818,20.818,0,0,0-1.2017,14.1118,9.9708,9.9708,0,0,0,6.4224,7.3458c.7663,6.4578-.8511,8.8435-1.7357,9.645-3.2769-11.7957-10.05-14.8725-10.05-14.8725-2.0426-5.3031-9.2054-8.3927-13.9243-9.1675s-9.508,1.1973-9.86,3.8737.8451,5.7048,10.2124,8.5219,13.3113-1.69,13.3113-1.69c10.7758,5.7049,10.7054,28.1017,10.7054,28.1017h1.3381a55.0867,55.0867,0,0,0-1.3875-13.4344C1226.7486,365.8815,1226.2293,356.9446,1226.2293,356.9446Z"/><path class="c" d="M1227.72,374.9461s.35-12.9611,7.9168-20.5976c0,0-2.312-3.0125.49-8.8975a25.36,25.36,0,0,1,11.63-11.56c3.3628-1.4012,6.5155-.42,7.8467,2.4521s-1.9617,7.1461-6.2354,11.49-9.2478,7.8467-12.4706,7.076c0,0-4.764,5.7449-6.1652,11.0694a45.1931,45.1931,0,0,0,9.1778-4.764s-.9808-5.1144,5.6748-8.7575,13.2413-5.6748,14.8527-1.3311-6.9359,10.3688-11.91,11.84-7.4118.4015-8.0146-.675a58.69,58.69,0,0,1-10.4364,5.4084,27.3246,27.3246,0,0,0-1.2253,7.6477Z"/><path class="c" d="M1231.1578,379.806s2.0113-6.6374,5.0283-9.051,7.3749,1.475,7.3749,1.475a7.6384,7.6384,0,0,1,8.7158,3.5534c3.1511,4.9117,5.1624,8.1794,4.6931,13.2077s-4.0227,4.8946-8.0453,1.4752-8.6488-11.8-6.2352-17.4317c0,0-2.4136-2.3466-4.8272-1.3409s-4.3578,4.3579-5.43,8.3805Z"/><path class="ae" d="M1233.81,417.51h-2.2225a13.0662,13.0662,0,0,0,0-26.1323h-.56v-10.785h-14.4995v10.785h-.56a13.0648,13.0648,0,0,0-13.0029,11.8144c-.0411.4117-.0633.8291-.0633,1.2517A13.0662,13.0662,0,0,0,1215.968,417.51h-2.2226a20.645,20.645,0,0,0-3.3988,41.0084v7.2818h26.2446v-7.19a20.6439,20.6439,0,0,0-2.7816-41.1Z"/><path class="c" d="M1223.7327,378.9426a22.4039,22.4039,0,0,0,2.098,6.5888c1.0025,1.8853,1.9747,4.7787,3.9654,5.8692,1.6274.8914,4.1827,1.5237,5.3569-.35,1.581-2.5229.6972-6.4408-.5291-8.9081-2.49-5.01-4.3069-9.065-7.72-9.7964-2.0648-.4425-3.5814,1.4667-3.5038,3.4448A23.1148,23.1148,0,0,0,1223.7327,378.9426Z"/><path d="M202.86,213.2736l26.9956-81.6788a6.37,6.37,0,0,1,6.0485-4.3713H361.6264a6.37,6.37,0,0,1,6.0485,8.3695l-26.9955,81.6788a6.37,6.37,0,0,1-6.0486,4.3713H208.909A6.37,6.37,0,0,1,202.86,213.2736Z"/><path class="au" d="M209.9078,213.2736l26.9955-81.6788a6.37,6.37,0,0,1,6.0486-4.3713H368.6738a6.37,6.37,0,0,1,6.0485,8.3695l-26.9955,81.6788a6.37,6.37,0,0,1-6.0486,4.3713H215.9564A6.37,6.37,0,0,1,209.9078,213.2736Z"/><circle class="av" cx="239.2638" cy="213.2526" r="2.3298"/><circle class="av" cx="230.153" cy="213.2526" r="2.3298"/><circle class="av" cx="221.0423" cy="213.2526" r="2.3298"/><polygon class="aw" points="304.213 246.8 274.374 188.582 305.532 188.582 335.371 246.8 304.213 246.8"/><path class="av" d="M274.3739,188.5821l-2.6754,4.556,25.626,49.9975H276.1116a8.2765,8.2765,0,0,0-6.8723,3.6644h34.9739l-29.8393-58.2179"/><path class="c" d="M510.4382,387.7849a3.9247,3.9247,0,0,0,1.1194-3.4311c-.6451-.3228-1.1251.6176-1.4792,1.2463-1.0759,1.91-3.8473,1.8481-5.6758,3.0572-2.007,1.3267-2.6758,4.0594-4.614,5.4848-1.8836,1.3851-4.348,1.2029-6.5522,1.445-2.2326.2452-3.6617,1.4058-5.6743,2.0207-3.7924,1.1584-5.3121,2.7776-6.3983,6.6413a13.4838,13.4838,0,0,0-.5651,3.6588c-.2036-.5233-.4064-1.0459-.632-1.5861-.8552-2.0486-1.7552-4.1193-2.6256-6.1222-.0963-.2212-.1924-.444-.2889-.6655a14.8159,14.8159,0,0,1,5.13-5.1334c3.1727-1.5865,6.4834-1.5175,10.2079-3.5177s4.1384-3.6557,4.966-7.0571a26.9421,26.9421,0,0,0,.2759-9.2893c-.2759-2.0694,1.1727-4.9661,1.8623-7.1044s-.6208-2.345-2.345-.9655a24.9547,24.9547,0,0,0-6.07,8.4145c-1.6554,3.7247-3.1037,3.2417-7.5871,5.7938s-3.5175,6.07-3.4487,7.794.5978,3.4938-.9655,5.0351a7.392,7.392,0,0,0-2.5213,4.8886c-1.7388-4.0149-3.4516-8.0848-4.8817-12.2411a26.97,26.97,0,0,1,2.267-3.354c1.54-1.9233,2.888-1.6068,4.9418-4.1739s.5776-2.6314,2.8744-4.3,3.7361-1.4761,7.9719-3.209,4.8776-3.6581,5.3268-6.4178-.0643-5.3269-.0643-7.6373a8.0865,8.0865,0,0,1,1.99-4.9419c.6418-.77,1.6687-1.861.6418-1.7327s-2.31,1.6684-5.0059,3.1446-5.5837,2.1179-7.4447,3.53-2.2464,4.1716-3.0806,6.2406-3.2732,2.4877-5.1345,3.5147-4.3642,4.9415-3.4656,7.7656.7059,5.84-.3209,7.5729a19.8553,19.8553,0,0,0-1.57,3.786c-2.3213-6.7984-3.8637-13.8309-3.4373-21.2492.0306-.5335.1015-1.0917.19-1.658a26.7067,26.7067,0,0,1,4.7947-5.4239c2.6477-2.3383,3.9975-1.9186,6.5934-3.84a8.3412,8.3412,0,0,0,3.0629-7.2163c-.0886-3.9883-.5229-7.8366.0268-11.8413.1417-1.0323,2.479-5.85,1.07-6.1715-1.0774-.2462-2.5909,1.7793-3.2927,2.3819-2.3811,2.0448-5.2564,3.5779-7.7779,5.447-2.1659,1.6054-2.7025,3.7786-3.2129,6.3939-.4154,2.1287-2.0767,3.4785-4.3608,5.088s-1.8171,4.88-.5192,6.6971,1.7131,3.9973,2.2323,5.6068a15.7759,15.7759,0,0,1,.56,2.4071,18.4054,18.4054,0,0,0-.2556,2.0779c-.47,8.1785,1.3927,15.8591,4.0667,23.2608a3.0548,3.0548,0,0,0-.61-.3278,8.0681,8.0681,0,0,1-3.7935-2.69c-1.1725-1.5863-.8277-3.5175-1.6554-6.8972s-2.8278-3.8625-4.621-4.7592-2.759-2.345-4.3454-5.2419-1.1037-7.449-1.0347-8.5525-.4826-2-1.3793-1.7934-1.6553,1.1727-3.1727,5.104-3.0348,6.8973-3.0348,9.9321.8276,6.69,2.8278,8.4838a6.4176,6.4176,0,0,1,2.483,5.38c.069,2.2072.6207,3.5177,2.207,4.6212s4.5524,1.31,9.38.5518a37.7362,37.7362,0,0,0,7.4537-1.9059c1.3864,3.6383,2.94,7.2128,4.477,10.7494.8692,2,1.7679,4.0677,2.6205,6.1106.0812.1946.1494.3788.2276.5711a7.4453,7.4453,0,0,0-4.9821-2.99c-6.0808-.8107-8.6145-3.3445-10.4389-6.2836s-6.1822-4.7632-11.4524-4.4594-10.0939.5614-12.8711-1.8241c-2.2454-1.9287-3.2824-4.325-4.3241-5.5667-.2111-.2512-.6338-.3316-.7976.0282-.1155.2542.0927.6371.2.8571a13.9559,13.9559,0,0,0,1.0837,1.6277,19.44,19.44,0,0,1,2.138,3.8652c.9748,2.55,1.5,7.1986,2.0995,11.0976a11.4762,11.4762,0,0,0,11.7724,9.2228c6.9732-.3748,10.4974-1.2747,13.1218,1.2s6.4939,1.988,9.4477-.375c1.6748-1.34,4.8991-2.56,6.7708-1.4644A32.6783,32.6783,0,0,1,482.7,421.529a42.95,42.95,0,0,1-1.5177,11.8672l.8565.241A43.8334,43.8334,0,0,0,483.59,421.524a35.5074,35.5074,0,0,0-2.205-11.4816c1.311-2.5848,4.4666-1.8978,8.8036-2.24,3.6169-.2855,7.0838-1.2043,9.4638-4.1563,1.3429-1.6652,2.3117-1.9742,4.2429-2.559,1.8362-.5564,3.9282-1.6852,4.5021-3.6577.6194-2.1289-.7707-4.4724-.103-6.5866A9.878,9.878,0,0,1,510.4382,387.7849Z"/><path class="ae" d="M497.5121,452.6562c-8.4489-5.4314-3.42-8.65-1.4082-9.6558s11.6675-8.4636,11.6675-19.6209H448.9036c0,11.1573,9.6559,18.615,11.6675,19.6209s7.0407,4.2244-1.4081,9.6558-9.44,13.4788-9.44,13.4788h57.23S505.9609,458.0877,497.5121,452.6562Z"/><path class="ae" d="M718.703,329.7945a41.3534,41.3534,0,1,1,27.2907,10.3018A41.3551,41.3551,0,0,1,718.703,329.7945Zm25.1326-65.6354a34.6451,34.6451,0,1,0,2.2308-.07Q744.9553,264.0887,743.8356,264.1591Z"/><path class="ae" d="M678.405,378.8046a3.2869,3.2869,0,0,0,2.4735-1.1163l42.4759-48.1867a3.2956,3.2956,0,1,0-4.9443-4.3585L675.9342,373.33a3.2956,3.2956,0,0,0,2.4708,5.4749Z"/><circle class="c" cx="967.46" cy="18.2561" r="17.5061"/><path class="p" d="M964.3266,26.4371l-6.2979-6.298a1.79,1.79,0,0,1,2.5324-2.5317l3.7655,3.7662L974.36,11.3409a1.79,1.79,0,0,1,2.5318,2.5318Z"/></g></svg>